<svg xmlns="http://www.w3.org/2000/svg" width="60" height="60" viewBox="0 0 60 60">
  <!-- Ethereal Bloom corner ornament — luminous particles with delicate arcs -->
  <defs>
    <radialGradient id="ebcg1" cx="50%" cy="50%" r="50%">
      <stop offset="0%" stop-color="#b8a9d4" stop-opacity="0.55"/>
      <stop offset="100%" stop-color="#b8a9d4" stop-opacity="0"/>
    </radialGradient>
    <radialGradient id="ebcg2" cx="50%" cy="50%" r="50%">
      <stop offset="0%" stop-color="#d4a0a0" stop-opacity="0.5"/>
      <stop offset="100%" stop-color="#d4a0a0" stop-opacity="0"/>
    </radialGradient>
    <radialGradient id="ebcg3" cx="50%" cy="50%" r="50%">
      <stop offset="0%" stop-color="#e8d5a3" stop-opacity="0.45"/>
      <stop offset="100%" stop-color="#e8d5a3" stop-opacity="0"/>
    </radialGradient>
  </defs>
  <!-- Delicate arc lines -->
  <path d="M2,58 C2,28 10,14 22,8 C30,4 40,2 58,2" fill="none" stroke="#b8a9d4" stroke-width="0.7" opacity="0.3"/>
  <path d="M2,46 C6,26 14,16 28,10 C36,7 44,6 58,6" fill="none" stroke="#d4a0a0" stroke-width="0.4" opacity="0.18"/>
  <!-- Glow orbs -->
  <circle cx="8" cy="46" r="3.5" fill="url(#ebcg1)"/>
  <circle cx="20" cy="28" r="3" fill="url(#ebcg2)"/>
  <circle cx="34" cy="14" r="2.5" fill="url(#ebcg3)"/>
  <circle cx="48" cy="6" r="3" fill="url(#ebcg1)"/>
  <!-- Tiny sparkle dots -->
  <circle cx="12" cy="36" r="0.8" fill="#e0dce8" opacity="0.55"/>
  <circle cx="26" cy="20" r="0.7" fill="#e0dce8" opacity="0.45"/>
  <circle cx="42" cy="10" r="0.6" fill="#e0dce8" opacity="0.4"/>
  <circle cx="6" cy="52" r="0.5" fill="#e0dce8" opacity="0.3"/>
</svg>
