<svg xmlns="http://www.w3.org/2000/svg" viewBox="0 0 400 560">
  <rect width="400" height="560" fill="#fdf5f7"/>
  <rect x="25" y="25" width="350" height="510" rx="12" fill="none" stroke="#d4688e" stroke-width="2"/>
  <circle cx="60" cy="60" r="12" fill="#d4688e" opacity="0.25"/>
  <circle cx="48" cy="55" r="8" fill="#d4688e" opacity="0.15"/>
  <circle cx="72" cy="52" r="9" fill="#d4688e" opacity="0.2"/>
  <circle cx="55" cy="72" r="7" fill="#d4688e" opacity="0.18"/>
  <circle cx="340" cy="60" r="12" fill="#d4688e" opacity="0.25"/>
  <circle cx="328" cy="52" r="9" fill="#d4688e" opacity="0.2"/>
  <circle cx="352" cy="55" r="8" fill="#d4688e" opacity="0.15"/>
  <circle cx="60" cy="500" r="12" fill="#d4688e" opacity="0.25"/>
  <circle cx="72" cy="508" r="9" fill="#d4688e" opacity="0.2"/>
  <circle cx="340" cy="500" r="12" fill="#d4688e" opacity="0.25"/>
  <circle cx="328" cy="508" r="9" fill="#d4688e" opacity="0.2"/>
  <ellipse cx="200" cy="140" rx="30" ry="8" fill="#d4688e" opacity="0.15"/>
  <text x="200" y="205" text-anchor="middle" fill="#d4688e" font-family="serif" font-size="22" letter-spacing="3">UNDANGAN</text>
  <text x="200" y="262" text-anchor="middle" fill="#d4688e" font-family="serif" font-size="18" opacity="0.7">Nama Pertama</text>
  <text x="200" y="315" text-anchor="middle" fill="#d4688e" font-family="serif" font-size="44">&amp;</text>
  <text x="200" y="362" text-anchor="middle" fill="#d4688e" font-family="serif" font-size="18" opacity="0.7">Nama Kedua</text>
  <path d="M160,400 Q180,385 200,400 Q220,385 240,400" fill="none" stroke="#d4688e" stroke-width="1.5" opacity="0.4"/>
</svg>