<svg xmlns="http://www.w3.org/2000/svg" viewBox="0 0 400 560">
  <defs>
    <linearGradient id="rainbow" x1="0" y1="0" x2="1" y2="1">
      <stop offset="0%" stop-color="#ff6b6b"/><stop offset="25%" stop-color="#ffd93d"/>
      <stop offset="50%" stop-color="#6bcb77"/><stop offset="75%" stop-color="#4d96ff"/>
      <stop offset="100%" stop-color="#9b59b6"/>
    </linearGradient>
  </defs>
  <rect width="400" height="560" fill="url(#rainbow)" opacity="0.15"/>
  <rect width="400" height="560" fill="#fffbf0"/>
  <rect width="400" height="560" fill="url(#rainbow)" opacity="0.08"/>
  <circle cx="50" cy="80" r="5" fill="#ff6b35" opacity="0.6"/><circle cx="120" cy="40" r="4" fill="#ffd93d" opacity="0.7"/>
  <circle cx="300" cy="55" r="6" fill="#6bcb77" opacity="0.5"/><circle cx="350" cy="90" r="4" fill="#4d96ff" opacity="0.6"/>
  <circle cx="70" cy="500" r="5" fill="#9b59b6" opacity="0.5"/><circle cx="330" cy="480" r="4" fill="#ff6b35" opacity="0.6"/>
  <circle cx="180" cy="50" r="3" fill="#ff6b35" opacity="0.4"/><circle cx="250" cy="70" r="5" fill="#ffd93d" opacity="0.5"/>
  <polygon points="200,40 206,58 225,58 210,68 216,86 200,76 184,86 190,68 175,58 194,58" fill="#ff6b35" opacity="0.3"/>
  <path d="M190,95 L200,45 L210,95 Z" fill="#ff6b35" opacity="0.25"/>
  <ellipse cx="200" cy="95" rx="18" ry="6" fill="#ff6b35" opacity="0.15"/>
  <text x="200" y="180" text-anchor="middle" fill="#ff6b35" font-family="sans-serif" font-size="24" font-weight="bold" letter-spacing="2">UNDANGAN</text>
  <text x="200" y="255" text-anchor="middle" fill="#ff6b35" font-family="sans-serif" font-size="18" opacity="0.7">Nama Pertama</text>
  <text x="200" y="310" text-anchor="middle" fill="#ff6b35" font-family="sans-serif" font-size="44" font-weight="bold">&amp;</text>
  <text x="200" y="365" text-anchor="middle" fill="#ff6b35" font-family="sans-serif" font-size="18" opacity="0.7">Nama Kedua</text>
  <circle cx="140" cy="420" r="3" fill="#6bcb77" opacity="0.5"/><circle cx="200" cy="430" r="4" fill="#ffd93d" opacity="0.6"/>
  <circle cx="260" cy="418" r="3" fill="#4d96ff" opacity="0.5"/>
</svg>