<svg xmlns="http://www.w3.org/2000/svg" viewBox="0 0 400 560">
  <rect width="400" height="560" fill="#f5efe6"/>
  <rect x="24" y="24" width="352" height="512" fill="none" stroke="#8b6914" stroke-width="2"/>
  <path d="M50,50 L70,70 L50,90 L30,70Z" fill="none" stroke="#8b6914" stroke-width="1.2" opacity="0.5"/>
  <path d="M350,50 L370,70 L350,90 L330,70Z" fill="none" stroke="#8b6914" stroke-width="1.2" opacity="0.5"/>
  <path d="M50,470 L70,490 L50,510 L30,490Z" fill="none" stroke="#8b6914" stroke-width="1.2" opacity="0.5"/>
  <path d="M350,470 L370,490 L350,510 L330,490Z" fill="none" stroke="#8b6914" stroke-width="1.2" opacity="0.5"/>
  <path d="M140,130 L160,150 L140,170 L120,150Z M200,130 L220,150 L200,170 L180,150Z M260,130 L280,150 L260,170 L240,150Z" fill="#8b6914" opacity="0.3"/>
  <line x1="80" y1="175" x2="320" y2="175" stroke="#8b6914" stroke-width="1"/>
  <text x="200" y="215" text-anchor="middle" fill="#8b6914" font-family="serif" font-size="22" letter-spacing="3">UNDANGAN</text>
  <text x="200" y="270" text-anchor="middle" fill="#8b6914" font-family="serif" font-size="18" opacity="0.7">Nama Pertama</text>
  <text x="200" y="320" text-anchor="middle" fill="#8b6914" font-family="serif" font-size="42">&amp;</text>
  <text x="200" y="365" text-anchor="middle" fill="#8b6914" font-family="serif" font-size="18" opacity="0.7">Nama Kedua</text>
  <line x1="80" y1="400" x2="320" y2="400" stroke="#8b6914" stroke-width="1"/>
  <path d="M180,420 L200,440 L220,420 M180,440 L200,460 L220,440" fill="none" stroke="#8b6914" stroke-width="1.2" opacity="0.4"/>
</svg>