<svg xmlns="http://www.w3.org/2000/svg" viewBox="0 0 400 560">
  <rect width="400" height="560" fill="#2c2418"/>
  <rect x="20" y="20" width="360" height="520" rx="8" fill="none" stroke="#c9a84c" stroke-width="3"/>
  <rect x="32" y="32" width="336" height="496" rx="5" fill="none" stroke="#c9a84c" stroke-width="1.5" stroke-dasharray="8 4"/>
  <polygon points="200,45 206,57 220,59 210,69 212,83 200,76 188,83 190,69 180,59 194,57" fill="#c9a84c"/>
  <polygon points="60,45 64,53 73,54 67,60 68,69 60,64 52,69 53,60 47,54 56,53" fill="#c9a84c" opacity="0.6"/>
  <polygon points="340,45 344,53 353,54 347,60 348,69 340,64 332,69 333,60 327,54 336,53" fill="#c9a84c" opacity="0.6"/>
  <line x1="80" y1="160" x2="320" y2="160" stroke="#c9a84c" stroke-width="1" opacity="0.5"/>
  <text x="200" y="200" text-anchor="middle" fill="#c9a84c" font-family="serif" font-size="22" letter-spacing="4">UNDANGAN</text>
  <text x="200" y="260" text-anchor="middle" fill="#c9a84c" font-family="serif" font-size="18" opacity="0.7">Nama Pertama</text>
  <text x="200" y="310" text-anchor="middle" fill="#c9a84c" font-family="serif" font-size="42">&amp;</text>
  <text x="200" y="355" text-anchor="middle" fill="#c9a84c" font-family="serif" font-size="18" opacity="0.7">Nama Kedua</text>
  <line x1="80" y1="390" x2="320" y2="390" stroke="#c9a84c" stroke-width="1" opacity="0.5"/>
  <polygon points="200,500 206,512 220,514 210,524 212,538 200,531 188,538 190,524 180,514 194,512" fill="#c9a84c" opacity="0.5"/>
</svg>