<svg xmlns="http://www.w3.org/2000/svg" viewBox="0 0 400 560">
  <rect width="400" height="560" fill="#f2e8d5"/>
  <rect x="20" y="20" width="360" height="520" fill="none" stroke="#8b4513" stroke-width="2.5"/>
  <line x1="35" y1="35" x2="365" y2="35" stroke="#8b4513" stroke-width="1" opacity="0.4"/>
  <line x1="35" y1="525" x2="365" y2="525" stroke="#8b4513" stroke-width="1" opacity="0.4"/>
  <path d="M40,40 L60,60 M60,40 L40,60 M80,40 L100,60 M100,40 L80,60 M300,40 L320,60 M320,40 L300,60 M340,40 L360,60 M360,40 L340,60" stroke="#8b4513" stroke-width="0.8" opacity="0.3"/>
  <path d="M40,500 L60,520 M60,500 L40,520 M80,500 L100,520 M100,500 L80,520 M300,500 L320,520 M320,500 L300,520 M340,500 L360,520 M360,500 L340,520" stroke="#8b4513" stroke-width="0.8" opacity="0.3"/>
  <path d="M160,100 L180,120 L160,140 L140,120Z" fill="none" stroke="#8b4513" stroke-width="1.5" opacity="0.5"/>
  <path d="M200,90 L220,110 L200,130 L180,110Z" fill="#8b4513" opacity="0.15"/>
  <path d="M240,100 L260,120 L240,140 L220,120Z" fill="none" stroke="#8b4513" stroke-width="1.5" opacity="0.5"/>
  <line x1="80" y1="160" x2="320" y2="160" stroke="#8b4513" stroke-width="1" opacity="0.5"/>
  <text x="200" y="210" text-anchor="middle" fill="#8b4513" font-family="serif" font-size="22" letter-spacing="3">UNDANGAN</text>
  <text x="200" y="270" text-anchor="middle" fill="#8b4513" font-family="serif" font-size="18" opacity="0.7">Nama Pertama</text>
  <text x="200" y="325" text-anchor="middle" fill="#8b4513" font-family="serif" font-size="42">&amp;</text>
  <text x="200" y="375" text-anchor="middle" fill="#8b4513" font-family="serif" font-size="18" opacity="0.7">Nama Kedua</text>
  <line x1="80" y1="410" x2="320" y2="410" stroke="#8b4513" stroke-width="1" opacity="0.5"/>
  <path d="M180,440 L200,460 L220,440" fill="none" stroke="#8b4513" stroke-width="1.2" opacity="0.4"/>
</svg>