<svg xmlns="http://www.w3.org/2000/svg" viewBox="0 0 400 400">
  <defs>
    <linearGradient id="g3" x1="0" y1="0" x2="1" y2="1">
      <stop offset="0%" stop-color="#fff8e1"/>
      <stop offset="100%" stop-color="#ffecb3"/>
    </linearGradient>
  </defs>
  <rect width="400" height="400" fill="url(#g3)"/>
  <!-- Rings -->
  <circle cx="175" cy="170" r="30" fill="none" stroke="#f9a825" stroke-width="4" opacity="0.35"/>
  <circle cx="225" cy="170" r="30" fill="none" stroke="#f9a825" stroke-width="4" opacity="0.35"/>
  <!-- Diamond on ring -->
  <path d="M175,138 L180,130 L170,130Z" fill="#fdd835" opacity="0.4"/>
  <!-- Bouquet -->
  <circle cx="200" cy="260" r="22" fill="#ef6c00" opacity="0.12"/>
  <circle cx="180" cy="250" r="18" fill="#ff8f00" opacity="0.1"/>
  <circle cx="220" cy="250" r="18" fill="#ff8f00" opacity="0.1"/>
  <circle cx="190" cy="275" r="16" fill="#ffb300" opacity="0.1"/>
  <circle cx="210" cy="275" r="16" fill="#ffb300" opacity="0.1"/>
  <rect x="195" y="285" width="10" height="30" rx="3" fill="#4e342e" opacity="0.15"/>
  <!-- Sparkles -->
  <polygon points="80,80 83,90 93,90 85,96 88,106 80,100 72,106 75,96 67,90 77,90" fill="#ffd54f" opacity="0.3"/>
  <polygon points="320,100 322,107 330,107 324,112 326,119 320,115 314,119 316,112 310,107 318,107" fill="#ffd54f" opacity="0.25"/>
  <polygon points="330,300 332,306 339,306 334,310 336,316 330,312 324,316 326,310 320,306 328,306" fill="#ffd54f" opacity="0.2"/>
  <!-- Text -->
  <text x="200" y="345" text-anchor="middle" font-family="serif" font-size="16" fill="#e65100" opacity="0.4">The Rings</text>
</svg>
