<svg xmlns="http://www.w3.org/2000/svg" viewBox="0 0 400 400">
  <defs>
    <linearGradient id="g6" x1="0" y1="0" x2="0" y2="1">
      <stop offset="0%" stop-color="#fbe9e7"/>
      <stop offset="100%" stop-color="#ffccbc"/>
    </linearGradient>
  </defs>
  <rect width="400" height="400" fill="url(#g6)"/>
  <!-- Table setting top view -->
  <circle cx="200" cy="200" r="100" fill="white" opacity="0.5"/>
  <circle cx="200" cy="200" r="95" fill="none" stroke="#d7ccc8" stroke-width="1.5" opacity="0.4"/>
  <circle cx="200" cy="200" r="60" fill="none" stroke="#d7ccc8" stroke-width="0.8" opacity="0.3"/>
  <!-- Plate/napkin -->
  <rect x="180" y="170" width="40" height="55" rx="3" fill="#efebe9" opacity="0.5"/>
  <rect x="185" y="175" width="30" height="45" rx="2" fill="#d7ccc8" opacity="0.3"/>
  <!-- Cutlery -->
  <rect x="162" y="165" width="4" height="65" rx="2" fill="#bcaaa4" opacity="0.3"/>
  <rect x="234" y="165" width="4" height="65" rx="2" fill="#bcaaa4" opacity="0.3"/>
  <rect x="240" y="165" width="4" height="65" rx="2" fill="#bcaaa4" opacity="0.3"/>
  <!-- Small flower centerpiece -->
  <circle cx="200" cy="145" r="8" fill="#ef5350" opacity="0.2"/>
  <circle cx="192" cy="150" r="6" fill="#e57373" opacity="0.18"/>
  <circle cx="208" cy="150" r="6" fill="#e57373" opacity="0.18"/>
  <circle cx="200" cy="155" r="5" fill="#ef9a9a" opacity="0.15"/>
  <!-- Glass -->
  <ellipse cx="250" cy="155" rx="10" ry="5" fill="none" stroke="#90a4ae" stroke-width="1" opacity="0.3"/>
  <line x1="250" y1="160" x2="250" y2="178" stroke="#90a4ae" stroke-width="1" opacity="0.3"/>
  <ellipse cx="250" cy="180" rx="8" ry="3" fill="none" stroke="#90a4ae" stroke-width="1" opacity="0.3"/>
  <!-- Text -->
  <text x="200" y="340" text-anchor="middle" font-family="serif" font-size="16" fill="#4e342e" opacity="0.4">Table Setting</text>
</svg>
