<svg xmlns="http://www.w3.org/2000/svg" viewBox="0 0 400 400">
  <defs>
    <linearGradient id="g5" x1="0" y1="0" x2="1" y2="1">
      <stop offset="0%" stop-color="#e3f2fd"/>
      <stop offset="100%" stop-color="#bbdefb"/>
    </linearGradient>
  </defs>
  <rect width="400" height="400" fill="url(#g5)"/>
  <!-- Sky/clouds -->
  <ellipse cx="100" cy="70" rx="50" ry="20" fill="white" opacity="0.4"/>
  <ellipse cx="120" cy="60" rx="35" ry="18" fill="white" opacity="0.5"/>
  <ellipse cx="300" cy="90" rx="45" ry="16" fill="white" opacity="0.35"/>
  <!-- Beach/shore -->
  <path d="M0,300 Q100,270 200,280 Q300,290 400,260 L400,400 L0,400Z" fill="#ffe0b2" opacity="0.4"/>
  <!-- Water -->
  <path d="M0,310 Q100,285 200,295 Q300,305 400,275 L400,310 Q300,330 200,320 Q100,310 0,330Z" fill="#64b5f6" opacity="0.15"/>
  <!-- Couple on beach -->
  <circle cx="190" cy="250" r="14" fill="#1565c0" opacity="0.15"/>
  <rect x="182" y="264" width="16" height="30" rx="5" fill="#1565c0" opacity="0.12"/>
  <circle cx="215" cy="248" r="12" fill="#1565c0" opacity="0.15"/>
  <rect x="208" y="260" width="14" height="32" rx="5" fill="#1565c0" opacity="0.12"/>
  <!-- Sunset/sun -->
  <circle cx="320" cy="160" r="35" fill="#ff9800" opacity="0.12"/>
  <circle cx="320" cy="160" r="25" fill="#ffb74d" opacity="0.15"/>
  <!-- Text -->
  <text x="200" y="360" text-anchor="middle" font-family="serif" font-size="16" fill="#1565c0" opacity="0.4">Outdoor Session</text>
</svg>
