<svg xmlns="http://www.w3.org/2000/svg" viewBox="0 0 400 400">
  <defs>
    <linearGradient id="g1" x1="0" y1="0" x2="1" y2="1">
      <stop offset="0%" stop-color="#fce4ec"/>
      <stop offset="100%" stop-color="#f8bbd0"/>
    </linearGradient>
  </defs>
  <rect width="400" height="400" fill="url(#g1)"/>
  <!-- Couple silhouette -->
  <circle cx="170" cy="150" r="28" fill="#c2185b" opacity="0.2"/>
  <rect x="155" y="178" width="30" height="50" rx="10" fill="#c2185b" opacity="0.15"/>
  <circle cx="230" cy="145" r="25" fill="#c2185b" opacity="0.2"/>
  <rect x="218" y="170" width="24" height="55" rx="8" fill="#c2185b" opacity="0.15"/>
  <!-- Heart -->
  <path d="M200,200 Q200,185 188,190 Q175,195 188,210 L200,222 L212,210 Q225,195 212,190 Q200,185 200,200Z" fill="#e91e63" opacity="0.25"/>
  <!-- Floral accents -->
  <circle cx="60" cy="340" r="20" fill="#f06292" opacity="0.15"/>
  <circle cx="80" cy="355" r="15" fill="#f48fb1" opacity="0.12"/>
  <circle cx="340" cy="60" r="18" fill="#f06292" opacity="0.15"/>
  <circle cx="320" cy="75" r="12" fill="#f48fb1" opacity="0.12"/>
  <!-- Text -->
  <text x="200" y="280" text-anchor="middle" font-family="serif" font-size="18" fill="#880e4f" opacity="0.5">Prewedding</text>
  <text x="200" y="305" text-anchor="middle" font-family="serif" font-size="12" fill="#ad1457" opacity="0.35">Budi &amp; Ani</text>
</svg>
